# xmcd CD database file
#
# Track frame offsets:
#	150
#	10407
#	19042
#	27460
#	38157
#	50393
#	58832
#	69557
#	79564
#	86122
#	96666
#	107885
#	117801
#
# Disc length: 1704 seconds
#
# Revision: 1
# Processed by: cddbd v1.5PL3 Copyright (c) Steve Scherf et al.
# Submitted via: CDex 1.40Beta4
#
DISCID=ac06a60d
DTITLE=Jennings, Waylon - Abilene
DYEAR=1999
DGENRE=Country
TTITLE0=Burning Memories
TTITLE1=Abilene
TTITLE2=Love's Gonna Live Here
TTITLE3=Money (That's What I Want)
TTITLE4=Don't Think Twice (It's Alright)
TTITLE5=Jole Blon
TTITLE6=Sally Was A Good Old Girl
TTITLE7=Lorena
TTITLE8=It's So Easy
TTITLE9=Dream Baby
TTITLE10=Crying
TTITLE11=White Lightning
TTITLE12=When Sin Stops (Love Begins)
EXTD=YEAR: 1999 ID3G:   2
EXTT0=
EXTT1=
EXTT2=
EXTT3=
EXTT4=
EXTT5=
EXTT6=
EXTT7=
EXTT8=
EXTT9=
EXTT10=
EXTT11=
EXTT12=
PLAYORDER=
